<svg width="307" height="23" viewBox="0 0 307 23" fill="none" xmlns="http://www.w3.org/2000/svg">
<path d="M0 11.5C19.2667 -2.5 38.5333 -2.5 57.8 11.5C77.0667 25.5 96.3333 25.5 115.6 11.5C134.867 -2.5 154.133 -2.5 173.4 11.5C192.667 25.5 211.933 25.5 231.2 11.5C250.467 -2.5 269.733 -2.5 289 11.5C308.267 25.5 327.533 25.5 346.8 11.5C366.067 -2.5 385.333 -2.5 404.6 11.5C423.867 25.5 443.133 25.5 462.4 11.5C481.667 -2.5 500.933 -2.5 520.2 11.5C539.467 25.5 558.733 25.5 578 11.5" stroke="#4C75F2" stroke-width="2"/>
</svg>
